<svg id="visual" viewBox="0 0 1280 300" width="1280" height="300" xmlns="http://www.w3.org/2000/svg" xmlns:xlink="http://www.w3.org/1999/xlink" version="1.1"><rect x="0" y="0" width="1280" height="300" fill="#00002A"></rect><path d="M0 144L14.2 147.3C28.3 150.7 56.7 157.3 85.2 161C113.7 164.7 142.3 165.3 170.8 166.7C199.3 168 227.7 170 256 166.5C284.3 163 312.7 154 341.2 146.5C369.7 139 398.3 133 426.8 140.5C455.3 148 483.7 169 512 169C540.3 169 568.7 148 597.2 140.2C625.7 132.3 654.3 137.7 682.8 148.7C711.3 159.7 739.7 176.3 768 175C796.3 173.7 824.7 154.3 853.2 151.2C881.7 148 910.3 161 938.8 170.5C967.3 180 995.7 186 1024 190.8C1052.3 195.7 1080.7 199.3 1109.2 189.7C1137.7 180 1166.3 157 1194.8 145.8C1223.3 134.7 1251.7 135.3 1265.8 135.7L1280 136L1280 0L1265.8 0C1251.7 0 1223.3 0 1194.8 0C1166.3 0 1137.7 0 1109.2 0C1080.7 0 1052.3 0 1024 0C995.7 0 967.3 0 938.8 0C910.3 0 881.7 0 853.2 0C824.7 0 796.3 0 768 0C739.7 0 711.3 0 682.8 0C654.3 0 625.7 0 597.2 0C568.7 0 540.3 0 512 0C483.7 0 455.3 0 426.8 0C398.3 0 369.7 0 341.2 0C312.7 0 284.3 0 256 0C227.7 0 199.3 0 170.8 0C142.3 0 113.7 0 85.2 0C56.7 0 28.3 0 14.2 0L0 0Z" fill="#a9adfc"></path><path d="M0 148L14.2 142.3C28.3 136.7 56.7 125.3 85.2 119C113.7 112.7 142.3 111.3 170.8 109.5C199.3 107.7 227.7 105.3 256 105.7C284.3 106 312.7 109 341.2 114.8C369.7 120.7 398.3 129.3 426.8 127.7C455.3 126 483.7 114 512 119.7C540.3 125.3 568.7 148.7 597.2 160C625.7 171.3 654.3 170.7 682.8 160.5C711.3 150.3 739.7 130.7 768 130.2C796.3 129.7 824.7 148.3 853.2 152C881.7 155.7 910.3 144.3 938.8 142.3C967.3 140.3 995.7 147.7 1024 153C1052.3 158.3 1080.7 161.7 1109.2 162C1137.7 162.3 1166.3 159.7 1194.8 159.8C1223.3 160 1251.7 163 1265.8 164.5L1280 166L1280 0L1265.8 0C1251.7 0 1223.3 0 1194.8 0C1166.3 0 1137.7 0 1109.2 0C1080.7 0 1052.3 0 1024 0C995.7 0 967.3 0 938.8 0C910.3 0 881.7 0 853.2 0C824.7 0 796.3 0 768 0C739.7 0 711.3 0 682.8 0C654.3 0 625.7 0 597.2 0C568.7 0 540.3 0 512 0C483.7 0 455.3 0 426.8 0C398.3 0 369.7 0 341.2 0C312.7 0 284.3 0 256 0C227.7 0 199.3 0 170.8 0C142.3 0 113.7 0 85.2 0C56.7 0 28.3 0 14.2 0L0 0Z" fill="#8388cd"></path><path d="M0 124L14.2 119.7C28.3 115.3 56.7 106.7 85.2 101.8C113.7 97 142.3 96 170.8 94.8C199.3 93.7 227.7 92.3 256 99.2C284.3 106 312.7 121 341.2 128.7C369.7 136.3 398.3 136.7 426.8 128.3C455.3 120 483.7 103 512 95.3C540.3 87.7 568.7 89.3 597.2 95.7C625.7 102 654.3 113 682.8 120.8C711.3 128.7 739.7 133.3 768 136.5C796.3 139.7 824.7 141.3 853.2 134.5C881.7 127.7 910.3 112.3 938.8 105.2C967.3 98 995.7 99 1024 99.5C1052.3 100 1080.7 100 1109.2 101.5C1137.7 103 1166.3 106 1194.8 111.3C1223.3 116.7 1251.7 124.3 1265.8 128.2L1280 132L1280 0L1265.8 0C1251.7 0 1223.3 0 1194.8 0C1166.3 0 1137.7 0 1109.2 0C1080.7 0 1052.3 0 1024 0C995.7 0 967.3 0 938.8 0C910.3 0 881.7 0 853.2 0C824.7 0 796.3 0 768 0C739.7 0 711.3 0 682.8 0C654.3 0 625.7 0 597.2 0C568.7 0 540.3 0 512 0C483.7 0 455.3 0 426.8 0C398.3 0 369.7 0 341.2 0C312.7 0 284.3 0 256 0C227.7 0 199.3 0 170.8 0C142.3 0 113.7 0 85.2 0C56.7 0 28.3 0 14.2 0L0 0Z" fill="#5f64a1"></path><path d="M0 105L14.2 104.2C28.3 103.3 56.7 101.7 85.2 101.2C113.7 100.7 142.3 101.3 170.8 100.2C199.3 99 227.7 96 256 94.8C284.3 93.7 312.7 94.3 341.2 94.5C369.7 94.7 398.3 94.3 426.8 93.8C455.3 93.3 483.7 92.7 512 95.8C540.3 99 568.7 106 597.2 104.5C625.7 103 654.3 93 682.8 85.2C711.3 77.3 739.7 71.7 768 73.8C796.3 76 824.7 86 853.2 92C881.7 98 910.3 100 938.8 98.7C967.3 97.3 995.7 92.7 1024 87.2C1052.3 81.7 1080.7 75.3 1109.2 71C1137.7 66.7 1166.3 64.3 1194.8 70.2C1223.3 76 1251.7 90 1265.8 97L1280 104L1280 0L1265.8 0C1251.7 0 1223.3 0 1194.8 0C1166.3 0 1137.7 0 1109.2 0C1080.7 0 1052.3 0 1024 0C995.7 0 967.3 0 938.8 0C910.3 0 881.7 0 853.2 0C824.7 0 796.3 0 768 0C739.7 0 711.3 0 682.8 0C654.3 0 625.7 0 597.2 0C568.7 0 540.3 0 512 0C483.7 0 455.3 0 426.8 0C398.3 0 369.7 0 341.2 0C312.7 0 284.3 0 256 0C227.7 0 199.3 0 170.8 0C142.3 0 113.7 0 85.2 0C56.7 0 28.3 0 14.2 0L0 0Z" fill="#3d4376"></path><path d="M0 73L14.2 70.7C28.3 68.3 56.7 63.7 85.2 58.8C113.7 54 142.3 49 170.8 49.5C199.3 50 227.7 56 256 56.3C284.3 56.7 312.7 51.3 341.2 50C369.7 48.7 398.3 51.3 426.8 51.8C455.3 52.3 483.7 50.7 512 54.5C540.3 58.3 568.7 67.7 597.2 68.7C625.7 69.7 654.3 62.3 682.8 61.2C711.3 60 739.7 65 768 67.5C796.3 70 824.7 70 853.2 70.3C881.7 70.7 910.3 71.3 938.8 68.2C967.3 65 995.7 58 1024 56.7C1052.3 55.3 1080.7 59.7 1109.2 63.2C1137.7 66.7 1166.3 69.3 1194.8 70.3C1223.3 71.3 1251.7 70.7 1265.8 70.3L1280 70L1280 0L1265.8 0C1251.7 0 1223.3 0 1194.8 0C1166.3 0 1137.7 0 1109.2 0C1080.7 0 1052.3 0 1024 0C995.7 0 967.3 0 938.8 0C910.3 0 881.7 0 853.2 0C824.7 0 796.3 0 768 0C739.7 0 711.3 0 682.8 0C654.3 0 625.7 0 597.2 0C568.7 0 540.3 0 512 0C483.7 0 455.3 0 426.8 0C398.3 0 369.7 0 341.2 0C312.7 0 284.3 0 256 0C227.7 0 199.3 0 170.8 0C142.3 0 113.7 0 85.2 0C56.7 0 28.3 0 14.2 0L0 0Z" fill="#1d244e"></path><path d="M0 32L14.2 31.7C28.3 31.3 56.7 30.7 85.2 29.7C113.7 28.7 142.3 27.3 170.8 28.5C199.3 29.7 227.7 33.3 256 34.3C284.3 35.3 312.7 33.7 341.2 34C369.7 34.3 398.3 36.7 426.8 38.2C455.3 39.7 483.7 40.3 512 40.2C540.3 40 568.7 39 597.2 37.8C625.7 36.7 654.3 35.3 682.8 35C711.3 34.7 739.7 35.3 768 36.2C796.3 37 824.7 38 853.2 37.8C881.7 37.7 910.3 36.3 938.8 35C967.3 33.7 995.7 32.3 1024 31.8C1052.3 31.3 1080.7 31.7 1109.2 34.8C1137.7 38 1166.3 44 1194.8 45.7C1223.3 47.3 1251.7 44.7 1265.8 43.3L1280 42L1280 0L1265.8 0C1251.7 0 1223.3 0 1194.8 0C1166.3 0 1137.7 0 1109.2 0C1080.7 0 1052.3 0 1024 0C995.7 0 967.3 0 938.8 0C910.3 0 881.7 0 853.2 0C824.7 0 796.3 0 768 0C739.7 0 711.3 0 682.8 0C654.3 0 625.7 0 597.2 0C568.7 0 540.3 0 512 0C483.7 0 455.3 0 426.8 0C398.3 0 369.7 0 341.2 0C312.7 0 284.3 0 256 0C227.7 0 199.3 0 170.8 0C142.3 0 113.7 0 85.2 0C56.7 0 28.3 0 14.2 0L0 0Z" fill="#00002a"></path></svg>